<svg xmlns="http://www.w3.org/2000/svg" version="1.1" xmlns:xlink="http://www.w3.org/1999/xlink" xmlns:svgjs="http://svgjs.dev/svgjs" width="1440" height="560" preserveAspectRatio="none" viewBox="0 0 1440 560"><g mask="url(&quot;#SvgjsMask1014&quot;)" fill="none"><rect width="1440" height="560" x="0" y="0" fill="#0e2a47"></rect><path d="M 0,191 C 57.6,163.4 172.8,54.2 288,53 C 403.2,51.8 460.8,194 576,185 C 691.2,176 748.8,15 864,8 C 979.2,1 1036.8,141.2 1152,150 C 1267.2,158.8 1382.4,71.6 1440,52L1440 560L0 560z" fill="#184a7e"></path><path d="M 0,309 C 48,348.8 144,491.2 240,508 C 336,524.8 384,400.4 480,393 C 576,385.6 624,475.4 720,471 C 816,466.6 864,365.6 960,371 C 1056,376.4 1104,515.8 1200,498 C 1296,480.2 1392,325.2 1440,282L1440 560L0 560z" fill="#2264ab"></path></g><defs><mask id="SvgjsMask1014"><rect width="1440" height="560" fill="#ffffff"></rect></mask></defs></svg>